<?xml version="1.0" standalone="no"?>
<!DOCTYPE svg PUBLIC "-//W3C//DTD SVG 20010904//EN"
 "http://www.w3.org/TR/2001/REC-SVG-20010904/DTD/svg10.dtd">
<svg version="1.0" xmlns="http://www.w3.org/2000/svg"
 width="1000.000000pt" height="1000.000000pt" viewBox="0 0 1000.000000 1000.000000"
 preserveAspectRatio="xMidYMid meet">
<metadata>
Created by potrace 1.11, written by Peter Selinger 2001-2013
</metadata>
<g transform="translate(0.000000,1000.000000) scale(0.100000,-0.100000)"
fill="#000000" stroke="none">
<path d="M4760 8664 c-19 -2 -84 -9 -145 -15 -572 -55 -1143 -261 -1645 -594
-221 -147 -349 -253 -561 -464 -211 -212 -317 -340 -464 -561 -332 -501 -524
-1029 -597 -1645 -17 -145 -17 -625 0 -770 85 -719 350 -1361 788 -1910 109
-136 426 -454 557 -559 344 -274 711 -477 1107 -614 254 -87 497 -143 775
-179 213 -27 664 -25 882 5 694 94 1290 346 1833 776 160 127 449 416 576 576
430 543 682 1139 776 1833 30 219 32 669 5 882 -84 647 -300 1202 -670 1719
-171 239 -452 535 -682 720 -541 433 -1187 701 -1895 786 -94 11 -572 22 -640
14z m285 -175 c-66 -68 -330 -308 -402 -365 -127 -102 -333 -186 -568 -233
-55 -11 -224 -36 -375 -56 -405 -52 -561 -84 -670 -140 -283 -144 -581 -521
-844 -1067 -107 -220 -168 -376 -300 -765 -168 -495 -252 -708 -362 -921 l-55
-107 5 255 c7 380 12 405 142 685 208 451 383 873 474 1146 45 134 60 164 108
228 202 266 493 545 770 739 l95 65 191 29 c514 75 813 149 1041 258 108 52
162 89 296 204 98 86 81 81 334 84 l159 2 -39 -41z m345 22 l45 -7 -165 -168
c-290 -295 -523 -492 -665 -561 -56 -27 -91 -36 -175 -45 -556 -62 -1036 -248
-1379 -534 -295 -246 -606 -678 -775 -1075 -62 -144 -143 -393 -257 -785 -165
-568 -197 -657 -294 -808 -62 -96 -176 -250 -182 -244 -7 6 -40 202 -53 308
l-11 96 84 169 c150 299 220 474 392 983 108 319 152 436 225 605 269 619 624
1080 923 1202 97 39 249 70 547 108 403 52 504 71 680 127 235 75 337 148 720
511 l145 137 75 -6 c41 -4 95 -10 120 -13z m-884 -44 c-178 -147 -340 -223
-635 -297 -174 -43 -628 -125 -639 -115 -7 6 217 121 353 181 160 71 390 150
550 190 133 32 339 72 380 73 l30 0 -39 -32z m1161 2 c59 -11 114 -24 121 -28
9 -5 -25 -53 -119 -166 -241 -288 -466 -505 -644 -621 -209 -136 -325 -174
-880 -288 -93 -20 -213 -49 -265 -67 -543 -177 -1006 -653 -1386 -1424 -106
-216 -140 -312 -260 -741 -99 -354 -167 -558 -233 -699 -57 -121 -199 -349
-289 -465 l-66 -84 -18 58 c-10 32 -29 98 -42 146 l-24 86 75 100 c232 309
257 366 452 1039 161 556 240 775 362 1005 160 299 417 626 632 806 347 291
780 462 1337 529 116 14 146 21 215 54 156 73 368 253 690 583 125 129 198
196 212 197 12 0 71 -8 130 -20z m386 -96 c64 -20 117 -40 117 -44 0 -16 -289
-454 -385 -583 -74 -101 -127 -203 -160 -306 -14 -47 -53 -220 -86 -385 -90
-449 -125 -567 -230 -776 -182 -363 -516 -779 -874 -1087 -249 -214 -445 -324
-1100 -617 -332 -148 -702 -330 -842 -413 -226 -134 -450 -304 -639 -485 l-93
-89 -17 39 c-26 61 -64 163 -64 172 0 4 37 57 81 116 105 139 226 328 283 442
87 174 141 332 281 825 110 391 156 515 266 726 283 542 569 892 927 1136 189
128 386 201 735 270 373 75 495 110 662 194 269 134 539 382 889 815 71 88 82
98 105 92 14 -3 79 -22 144 -42z m266 -94 c28 -12 51 -24 51 -28 0 -3 -30 -42
-65 -86 -147 -180 -276 -402 -334 -577 -17 -51 -51 -192 -75 -313 -175 -872
-404 -1540 -666 -1940 -206 -314 -532 -512 -1705 -1030 -736 -325 -925 -421
-1106 -557 -105 -79 -311 -279 -409 -397 -41 -49 -78 -90 -81 -90 -3 -1 -35
57 -72 128 l-67 129 95 90 c255 241 502 419 805 580 127 68 436 213 803 378
590 265 790 386 1088 657 265 242 530 562 695 839 180 303 236 470 339 1000
76 396 99 457 258 680 56 79 163 237 237 351 74 114 140 207 146 207 6 0 34
-10 63 -21z m218 -98 l52 -26 -71 -90 c-156 -198 -294 -440 -352 -615 -14 -41
-50 -192 -81 -335 -206 -943 -393 -1493 -662 -1941 -224 -372 -424 -547 -918
-800 -229 -118 -390 -190 -855 -381 -719 -297 -875 -374 -1060 -528 -94 -79
-268 -258 -385 -397 l-89 -107 -74 111 c-40 61 -71 115 -70 119 8 22 233 272
313 346 240 225 434 335 1125 638 1275 558 1636 768 1852 1075 283 403 547
1168 722 2090 14 75 39 175 55 223 59 172 173 369 326 560 87 108 78 105 172
58z m195 -103 c106 -60 198 -119 198 -127 0 -4 -21 -36 -47 -71 -26 -36 -93
-135 -149 -220 -308 -469 -491 -879 -553 -1240 -92 -533 -202 -839 -433 -1205
-167 -264 -529 -746 -635 -845 -245 -230 -494 -355 -1315 -660 -164 -60 -362
-137 -440 -171 -439 -187 -685 -372 -993 -747 l-60 -73 -28 33 c-15 18 -48 59
-73 90 l-44 57 74 89 c137 164 291 326 395 413 178 150 338 231 976 494 591
244 787 332 1020 458 444 239 648 426 869 797 266 446 447 978 661 1945 88
397 138 521 315 780 50 72 180 243 187 245 0 0 34 -19 75 -42z m331 -213 c34
-24 72 -53 85 -63 l23 -18 -51 -68 c-167 -219 -301 -450 -410 -704 -92 -214
-146 -361 -315 -863 -230 -681 -335 -950 -463 -1184 -359 -658 -945 -1099
-2232 -1680 -368 -165 -540 -252 -617 -309 -96 -70 -267 -240 -399 -396 l-119
-141 -103 107 c-56 59 -102 111 -102 117 0 20 190 235 316 357 287 278 466
371 1367 705 564 209 868 365 1084 556 102 92 138 135 345 415 347 468 474
679 592 976 79 201 125 382 191 746 60 336 228 718 513 1162 64 100 224 330
230 330 2 0 31 -20 65 -45z m230 -178 l48 -42 -103 -140 c-237 -320 -336 -483
-416 -678 -70 -170 -108 -299 -228 -781 -175 -700 -278 -1005 -464 -1378 -238
-478 -491 -766 -934 -1066 -265 -180 -443 -278 -1011 -558 -597 -294 -757
-401 -1141 -761 -73 -68 -135 -123 -139 -123 -10 0 -232 180 -262 212 l-22 23
107 125 c132 156 296 320 385 387 89 67 173 110 587 298 741 337 1153 565
1542 857 161 121 426 384 541 539 258 347 391 647 719 1634 171 512 244 700
374 955 101 200 327 541 357 540 7 -1 34 -20 60 -43z m179 -164 l66 -68 -83
-136 c-169 -276 -309 -556 -379 -758 -48 -137 -98 -319 -235 -856 -171 -671
-246 -924 -366 -1230 -235 -601 -456 -908 -798 -1109 -51 -30 -209 -104 -352
-166 -481 -207 -804 -374 -1195 -618 -363 -226 -547 -371 -711 -559 -45 -50
-86 -99 -93 -109 -12 -16 -17 -15 -72 16 -89 49 -274 171 -274 180 0 14 248
248 361 340 268 219 376 283 989 587 611 303 854 448 1150 682 389 308 671
729 903 1351 97 260 156 458 277 940 114 457 160 619 210 744 50 127 134 285
219 414 93 141 299 422 310 422 3 0 36 -30 73 -67z m164 -175 c43 -45 144
-166 144 -173 0 -2 -36 -84 -81 -182 -112 -247 -276 -631 -369 -863 -183 -460
-311 -935 -405 -1510 -33 -202 -40 -231 -87 -380 -121 -374 -413 -930 -578
-1100 -77 -79 -191 -123 -685 -260 -365 -102 -508 -149 -615 -200 -201 -98
-459 -311 -1036 -856 -78 -74 -147 -134 -154 -134 -17 0 -231 91 -323 137
l-68 34 21 29 c45 64 239 256 335 332 182 146 586 402 913 578 182 98 427 213
722 339 337 144 467 225 639 393 153 151 257 305 382 563 193 401 301 732 525
1608 207 809 233 890 403 1222 98 191 257 465 270 465 4 0 25 -19 47 -42z
m274 -348 c5 -10 -4 -41 -27 -90 -173 -371 -388 -943 -527 -1404 -88 -289
-128 -449 -187 -736 -135 -666 -330 -1218 -546 -1545 -198 -300 -368 -401
-918 -550 -93 -25 -211 -59 -262 -76 -274 -90 -509 -267 -996 -748 l-288 -285
-146 42 c-81 24 -149 45 -151 47 -13 12 607 580 813 744 277 222 338 249 910
408 527 146 645 193 738 293 187 201 480 775 601 1173 20 65 52 212 71 329
100 594 223 1052 403 1503 81 202 250 599 352 823 l83 183 34 -48 c19 -26 38
-55 43 -63z m144 -225 l48 -85 -91 -179 c-197 -387 -336 -812 -661 -2011 -272
-1005 -339 -1208 -454 -1385 -155 -237 -382 -384 -853 -550 -330 -117 -411
-149 -523 -206 -223 -115 -399 -258 -749 -607 l-254 -254 -126 22 c-69 12
-129 25 -134 29 -8 8 372 387 538 536 201 182 371 308 504 375 106 52 190 81
428 146 268 72 365 105 490 164 265 126 412 283 588 630 180 356 333 830 435
1349 114 583 366 1355 655 2010 l68 154 21 -26 c12 -15 43 -65 70 -112z
m-6100 -22 c-85 -228 -363 -877 -372 -869 -12 13 110 369 186 543 62 140 195
393 207 393 2 0 -7 -30 -21 -67z m6326 -442 l42 -104 -43 -101 c-23 -56 -91
-207 -150 -336 -233 -510 -336 -817 -630 -1875 -166 -599 -241 -836 -296 -934
-53 -96 -193 -231 -328 -319 -275 -177 -319 -208 -392 -270 -99 -87 -172 -183
-233 -307 -43 -89 -66 -155 -124 -366 l-16 -56 -115 -33 c-63 -18 -117 -31
-120 -29 -2 2 11 49 30 104 50 150 66 236 72 387 6 158 0 179 -65 199 -73 22
-207 -34 -405 -167 -184 -125 -416 -312 -634 -512 -121 -111 -122 -112 -172
-112 -91 0 -90 2 39 139 235 249 497 479 685 600 150 98 210 123 695 296 208
75 406 168 525 247 104 69 250 213 310 306 120 187 182 374 451 1362 347 1272
476 1670 662 2034 l76 150 48 -100 c25 -54 65 -146 88 -203z m101 -283 c12
-40 34 -124 50 -187 l29 -113 -36 -59 c-57 -95 -168 -333 -224 -484 -150 -400
-270 -833 -455 -1640 -168 -732 -192 -813 -283 -933 -76 -101 -151 -152 -428
-287 -267 -131 -423 -228 -521 -322 -67 -65 -137 -166 -155 -225 -6 -21 -16
-42 -22 -47 -17 -13 -128 -52 -133 -47 -7 7 53 215 82 288 41 100 102 195 179
275 90 96 145 138 358 274 379 243 446 330 573 740 20 63 96 335 171 604 283
1023 404 1384 623 1858 53 117 113 249 132 294 18 46 35 83 36 83 1 0 12 -33
24 -72z m123 -580 l15 -118 -34 -80 c-144 -337 -279 -847 -476 -1800 -44 -211
-83 -399 -88 -417 -20 -73 -228 -331 -426 -528 -204 -204 -411 -368 -655 -520
-95 -58 -342 -189 -378 -200 l-23 -7 20 40 c71 139 283 292 620 446 206 95
294 149 381 236 55 54 87 97 117 155 66 129 80 181 238 870 238 1036 390 1539
587 1945 82 167 78 168 102 -22z m23 -545 c-11 -459 -98 -871 -272 -1277 -80
-188 -233 -476 -220 -416 3 14 26 126 51 250 105 523 217 995 310 1308 49 169
123 382 131 382 3 0 3 -111 0 -247z m-2617 -2791 c0 -139 -34 -302 -100 -476
l-32 -84 -106 -21 c-59 -11 -111 -21 -115 -21 -5 0 -5 20 -2 44 4 26 2 59 -5
80 -38 116 -217 73 -425 -101 l-76 -64 -99 3 -100 3 111 99 c363 326 764 609
889 628 51 8 60 -6 60 -90z m-429 -505 c16 -35 -5 -103 -34 -110 -35 -9 -269
-29 -274 -24 -6 7 112 89 167 117 89 45 126 49 141 17z"/>
<path d="M4835 7314 c-149 -27 -333 -82 -598 -180 -412 -153 -695 -331 -982
-618 -229 -229 -394 -448 -543 -721 -205 -373 -352 -842 -353 -1125 -1 -100 9
-141 43 -177 60 -64 158 -35 458 137 305 175 500 268 746 354 164 57 275 108
395 181 330 201 635 517 894 926 172 270 374 715 411 901 34 174 -20 281 -162
324 -59 18 -203 17 -309 -2z m321 -80 c59 -29 84 -74 84 -152 0 -83 -18 -151
-85 -318 -137 -341 -346 -699 -569 -974 -90 -111 -288 -312 -391 -395 -192
-156 -388 -265 -620 -345 -228 -80 -428 -173 -700 -328 -238 -135 -320 -174
-375 -180 -47 -4 -50 -3 -61 24 -31 79 15 380 96 631 236 734 721 1353 1320
1685 277 153 785 332 1060 372 68 10 203 -1 241 -20z"/>
<path d="M4380 6895 c-134 -19 -257 -57 -385 -119 -211 -101 -553 -354 -766
-566 -207 -206 -276 -340 -376 -735 -71 -282 -42 -381 112 -380 79 1 170 30
394 126 101 44 252 100 335 125 170 51 264 94 351 159 156 117 459 419 573
571 136 182 212 368 212 520 0 92 -23 164 -71 218 -75 85 -188 109 -379 81z
m270 -89 c170 -84 140 -361 -71 -661 -74 -105 -445 -482 -554 -564 -96 -71
-205 -122 -366 -170 -76 -22 -220 -76 -323 -120 -221 -95 -300 -121 -372 -121
-45 0 -55 3 -65 23 -20 37 -12 114 31 286 109 432 195 567 545 856 395 326
670 466 969 494 103 10 150 5 206 -23z"/>
<path d="M4050 6575 c-160 -56 -375 -197 -495 -327 -110 -118 -287 -387 -345
-525 -38 -90 -39 -135 -4 -170 24 -24 30 -25 98 -21 57 4 128 24 332 93 296
100 360 130 476 224 137 111 408 427 427 499 16 56 -2 109 -54 158 -62 60
-137 86 -260 91 -88 3 -109 0 -175 -22z m312 -78 c74 -33 108 -69 108 -113 0
-27 -18 -55 -96 -151 -172 -211 -323 -354 -444 -420 -71 -39 -550 -202 -618
-210 -42 -5 -53 -3 -58 11 -21 54 259 503 386 619 129 118 294 223 423 269
107 38 210 36 299 -5z"/>
<path d="M4000 6316 c-97 -26 -243 -128 -291 -204 -32 -50 -79 -187 -79 -228
0 -13 10 -34 21 -45 18 -18 30 -21 72 -16 109 10 430 205 489 297 55 84 20
172 -79 199 -47 14 -76 13 -133 -3z m150 -86 c28 -28 25 -44 -16 -89 -64 -72
-320 -227 -406 -247 l-27 -6 24 77 c13 43 35 93 48 112 30 42 123 113 191 148
65 33 156 35 186 5z"/>
</g>
</svg>
